 http://en.wikipedia.org/wiki/The_Universe_(TV_series)

The Universe Episodes 01-24.iso
Format                           : Matroska
Format version                   : Version 2
File size                        : 22.4 GiB
Duration                         : 18h 1mn
Overall bit rate                 : 2 962 Kbps
Encoded date                     : UTC 2011-07-27 15:50:30
Writing application              : mkvmerge v4.9.1 (\\\'Ich will\\\') built on Jul 11 2011 23:53:15
Writing library                  : libebml v1.2.1 + libmatroska v1.1.1

Video
ID                               : 1
Format                           : AVC
Format/Info                      : Advanced Video Codec
Format profile                   : Main@L4.0
Format settings, CABAC           : Yes
Format settings, ReFrames        : 4 frames
Muxing mode                      : Header stripping
Codec ID                         : V_MPEG4/ISO/AVC
Duration                         : 18h 1mn
Bit rate                         : 2 743 Kbps
Width                            : 1 920 pixels
Height                           : 1 080 pixels
Display aspect ratio             : 16:9
Frame rate mode                  : Variable
Frame rate                       : 23.976 fps
Color space                      : YUV
Chroma subsampling               : 4:2:0
Bit depth                        : 8 bits
Scan type                        : Progressive
Bits/(Pixel*Frame)               : 0.055
Stream size                      : 20.7 GiB (93%)
Writing library                  : x264 core 115
Encoding settings                : cabac=1 / ref=1 / deblock=1:0:0 / analyse=0x1:0x111 / me=hex / subme=2 / psy=1 / psy_rd=1.00:0.00 / mixed_ref=0 / me_range=16 / chroma_me=1 / trellis=0 / 8x8dct=0 / cqm=0 / deadzone=21,11 / fast_pskip=1 / chroma_qp_offset=0 / threads=6 / sliced_threads=0 / nr=0 / decimate=1 / interlaced=0 / bluray_compat=0 / constrained_intra=0 / bframes=3 / b_pyramid=2 / b_adapt=1 / b_bias=0 / direct=1 / weightb=1 / open_gop=0 / weightp=1 / keyint=240 / keyint_min=24 / scenecut=40 / intra_refresh=0 / rc_lookahead=10 / rc=crf / mbtree=1 / crf=25.0 / qcomp=0.60 / qpmin=3 / qpmax=69 / qpstep=4 / ip_ratio=1.40 / aq=1:1.00
Language                         : English
Color primaries                  : BT.709-5, BT.1361, IEC 61966-2-4, SMPTE RP177
Transfer characteristics         : BT.709-5, BT.1361
Matrix coefficients              : BT.709-5, BT.1361, IEC 61966-2-4 709, SMPTE RP177

Audio
ID                               : 2
Format                           : AC-3
Format/Info                      : Audio Coding 3
Mode extension                   : CM (complete main)
Muxing mode                      : Header stripping
Codec ID                         : A_AC3
Duration                         : 18h 1mn
Bit rate mode                    : Constant
Bit rate                         : 160 Kbps
Channel(s)                       : 2 channels
Channel positions                : Front: L R
Sampling rate                    : 48.0 KHz
Bit depth                        : 16 bits
Compression mode                 : Lossy
Stream size                      : 1.21 GiB (5%)

Menu
00:00:00.000                     : :Episode 01
00:44:07.852                     : :Episode 02
01:27:10.691                     : :Episode 03
02:10:02.299                     : :Episode 04
02:52:55.180                     : :Episode 05
03:36:02.512                     : :Episode 06
04:18:44.548                     : :Episode 07
05:02:11.834                     : :Episode 08
05:45:02.666                     : :Episode 09
06:27:56.838                     : :Episode 10
07:11:14.996                     : :Episode 11
07:54:16.930                     : :Episode 12
08:37:38.942                     : :Episode 13
09:20:48.499                     : :Episode 14
10:49:40.737                     : :Episode 15
11:32:39.145                     : :Episode 16
12:15:44.906                     : :Episode 17
12:58:52.112                     : :Episode 18
13:42:05.177                     : :Episode 19
14:25:19.826                     : :Episode 20
15:07:56.077                     : :Episode 21
15:51:09.391                     : :Episode 22
16:34:30.918                     : :Episode 23
17:17:41.755                     : :Episode 24



The Universe Episodes 25-48.iso
Format                           : Matroska
Format version                   : Version 2
File size                        : 22.6 GiB
Duration                         : 17h 17mn
Overall bit rate                 : 3 123 Kbps
Encoded date                     : UTC 2011-07-28 18:19:52
Writing application              : mkvmerge v4.9.1 (\\\'Ich will\\\') built on Jul 11 2011 23:53:15
Writing library                  : libebml v1.2.1 + libmatroska v1.1.1

Video
ID                               : 1
Format                           : AVC
Format/Info                      : Advanced Video Codec
Format profile                   : Main@L4.0
Format settings, CABAC           : Yes
Format settings, ReFrames        : 4 frames
Muxing mode                      : Header stripping
Codec ID                         : V_MPEG4/ISO/AVC
Duration                         : 17h 17mn
Bit rate                         : 2 901 Kbps
Width                            : 1 920 pixels
Height                           : 1 080 pixels
Display aspect ratio             : 16:9
Frame rate mode                  : Variable
Frame rate                       : 23.976 fps
Color space                      : YUV
Chroma subsampling               : 4:2:0
Bit depth                        : 8 bits
Scan type                        : Progressive
Bits/(Pixel*Frame)               : 0.058
Stream size                      : 21.0 GiB (93%)
Writing library                  : x264 core 115
Encoding settings                : cabac=1 / ref=1 / deblock=1:0:0 / analyse=0x1:0x111 / me=hex / subme=2 / psy=1 / psy_rd=1.00:0.00 / mixed_ref=0 / me_range=16 / chroma_me=1 / trellis=0 / 8x8dct=0 / cqm=0 / deadzone=21,11 / fast_pskip=1 / chroma_qp_offset=0 / threads=6 / sliced_threads=0 / nr=0 / decimate=1 / interlaced=0 / bluray_compat=0 / constrained_intra=0 / bframes=3 / b_pyramid=2 / b_adapt=1 / b_bias=0 / direct=1 / weightb=1 / open_gop=0 / weightp=1 / keyint=240 / keyint_min=24 / scenecut=40 / intra_refresh=0 / rc_lookahead=10 / rc=crf / mbtree=1 / crf=25.0 / qcomp=0.60 / qpmin=3 / qpmax=69 / qpstep=4 / ip_ratio=1.40 / aq=1:1.00
Language                         : English
Color primaries                  : BT.709-5, BT.1361, IEC 61966-2-4, SMPTE RP177
Transfer characteristics         : BT.709-5, BT.1361
Matrix coefficients              : BT.709-5, BT.1361, IEC 61966-2-4 709, SMPTE RP177

Audio
ID                               : 2
Format                           : AC-3
Format/Info                      : Audio Coding 3
Mode extension                   : CM (complete main)
Muxing mode                      : Header stripping
Codec ID                         : A_AC3
Duration                         : 17h 17mn
Bit rate mode                    : Constant
Bit rate                         : 160 Kbps
Channel(s)                       : 2 channels
Channel positions                : Front: L R
Sampling rate                    : 48.0 KHz
Bit depth                        : 16 bits
Compression mode                 : Lossy
Stream size                      : 1.16 GiB (5%)

Menu
00:00:00.000                     : :Episode 25
00:44:28.707                     : :Episode 26
01:27:40.514                     : :Episode 27
02:10:51.495                     : :Episode 28
02:54:01.306                     : :Episode 29
03:37:00.254                     : :Episode 30
04:20:16.927                     : :Episode 31
05:03:27.219                     : :Episode 32
05:46:39.847                     : :Episode 33
06:29:57.812                     : :Episode 34
07:13:13.403                     : :Episode 35
07:56:10.006                     : :Episode 36
08:39:11.264                     : :Episode 37
09:22:08.811                     : :Episode 38
10:05:12.656                     : :Episode 39
10:48:09.352                     : :Episode 40
11:31:17.934                     : :Episode 41
12:14:26.531                     : :Episode 42
12:57:34.631                     : :Episode 43
13:40:52.066                     : :Episode 44
14:24:05.546                     : :Episode 45
15:07:20.953                     : :Episode 46
15:50:34.251                     : :Episode 47
16:33:58.327                     : :Episode 48



The Universe Episodes 49-64.iso
Format                           : Matroska
Format version                   : Version 2
File size                        : 21.7 GiB
Duration                         : 11h 32mn
Overall bit rate                 : 4 486 Kbps
Encoded date                     : UTC 2011-07-31 13:05:24
Writing application              : mkvmerge v4.9.1 (\\\'Ich will\\\') built on Jul 11 2011 23:53:15
Writing library                  : libebml v1.2.1 + libmatroska v1.1.1

Video
ID                               : 1
Format                           : AVC
Format/Info                      : Advanced Video Codec
Format profile                   : Main@L4.0
Format settings, CABAC           : Yes
Format settings, ReFrames        : 4 frames
Muxing mode                      : Header stripping
Codec ID                         : V_MPEG4/ISO/AVC
Duration                         : 11h 32mn
Bit rate                         : 4 237 Kbps
Width                            : 1 920 pixels
Height                           : 1 080 pixels
Display aspect ratio             : 16:9
Frame rate mode                  : Variable
Frame rate                       : 23.976 fps
Color space                      : YUV
Chroma subsampling               : 4:2:0
Bit depth                        : 8 bits
Scan type                        : Progressive
Bits/(Pixel*Frame)               : 0.085
Stream size                      : 20.5 GiB (94%)
Writing library                  : x264 core 115
Encoding settings                : cabac=1 / ref=1 / deblock=1:0:0 / analyse=0x1:0x111 / me=hex / subme=2 / psy=1 / psy_rd=1.00:0.00 / mixed_ref=0 / me_range=16 / chroma_me=1 / trellis=0 / 8x8dct=0 / cqm=0 / deadzone=21,11 / fast_pskip=1 / chroma_qp_offset=0 / threads=6 / sliced_threads=0 / nr=0 / decimate=1 / interlaced=0 / bluray_compat=0 / constrained_intra=0 / bframes=3 / b_pyramid=2 / b_adapt=1 / b_bias=0 / direct=1 / weightb=1 / open_gop=0 / weightp=1 / keyint=240 / keyint_min=24 / scenecut=40 / intra_refresh=0 / rc_lookahead=10 / rc=crf / mbtree=1 / crf=23.0 / qcomp=0.60 / qpmin=3 / qpmax=69 / qpstep=4 / ip_ratio=1.40 / aq=1:1.00
Language                         : English
Color primaries                  : BT.709-5, BT.1361, IEC 61966-2-4, SMPTE RP177
Transfer characteristics         : BT.709-5, BT.1361
Matrix coefficients              : BT.709-5, BT.1361, IEC 61966-2-4 709, SMPTE RP177

Audio
ID                               : 2
Format                           : AC-3
Format/Info                      : Audio Coding 3
Mode extension                   : CM (complete main)
Muxing mode                      : Header stripping
Codec ID                         : A_AC3
Duration                         : 11h 32mn
Bit rate mode                    : Constant
Bit rate                         : 160 Kbps
Channel(s)                       : 2 channels
Channel positions                : Front: L R
Sampling rate                    : 48.0 KHz
Bit depth                        : 16 bits
Compression mode                 : Lossy
Stream size                      : 792 MiB (4%)

Menu
00:00:00.000                     : :Episode 49
00:45:02.407                     : :Episode 50
01:28:39.770                     : :Episode 51
02:56:11.861                     : :Episode 53
03:39:50.493                     : :Episode 54
04:23:32.672                     : :Episode 55
05:07:15.330                     : :Episode 56
05:50:33.922                     : :Episode 57
06:33:13.890                     : :Episode 58
07:16:09.922                     : :Episode 59
07:58:30.634                     : :Episode 60
08:41:25.509                     : :Episode 61
09:23:49.937                     : :Episode 62
10:06:42.856                     : :Episode 63
10:49:28.015                     : :Episode 64
